<ttFont>
          <CharString index="0">
            -69 callsubr
            -1 callsubr
            -2 callsubr
            hvcurveto
            -27 callsubr
            -68 callsubr
            vhcurveto
            return
          </CharString>
          <CharString index="1">
            -30 callsubr
            -28 55 -7 32 38 vvcurveto
            196 vlineto
            103 -53 49 -104 -91 -115 -78 0 vhcurveto
            29 -79 rlineto
            0 73 39 52 74 21 -20 -65 vhcurveto
            -17 -18 callsubr
            return
          </CharString>
          <CharString index="2">
            hstemhm
            hintmask 10100000
            444 -74 callsubr
            -46 -20 25 58 -17 callsubr
            -6 -115 rlineto
            -77 49 -52 72 64 76 83 18 16 vhcurveto
            hintmask 01100000
            -51 callsubr
            return
          </CharString>
          <CharString index="3">
            hstemhm
            hintmask 10111000
            -54 callsubr
            hintmask 01111000
            -106 callsubr
            return
          </CharString>
          <CharString index="4">
            hstem
            360 700 -107 callsubr
            return
          </CharString>
          <CharString index="5">
            rmoveto
            -90 callsubr
            163 hmoveto
            -89 callsubr
            endchar
          </CharString>
          <CharString index="6">
            rmoveto
            -66 -42 -30 4 -73 34 -30 4 rlinecurve
            -24 -49 -48 -38 -32 hvcurveto
            28 -43 66 42 30 -4 73 -34 30 -4 rlinecurve
            24 49 48 38 32 hvcurveto
            return
          </CharString>
          <CharString index="7">
            rmoveto
            0 -128 -48 -101 -30 vhcurveto
            5 -72 rlineto
            104 18 131 30 0 vvcurveto
            return
          </CharString>
          <CharString index="8">
            rmoveto
            -53 callsubr
            134 100 131 176 132 -74 87 -115 hvcurveto
            -4 callsubr
            -68 -41 56 95 88 35 48 68 68 31 -47 -98 vhcurveto
            return
          </CharString>
          <CharString index="9">
            -100 callsubr
            endchar
          </CharString>
          <CharString index="10">
            hstem
            265 515 -99 callsubr
            return
          </CharString>
          <CharString index="11">
            rmoveto
            19 -35 7 -22 -22 vvcurveto
            -35 -17 -35 -42 -49 vhcurveto
            41 -30 rlineto
            82 63 42 61 56 vvcurveto
            30 -11 28 -23 29 vhcurveto
            return
          </CharString>
          <CharString index="12">
            hstem
            402 -31 callsubr
            -16 callsubr
            75 -90 108 22 callsubr
            vhcurveto
            0 callsubr
            39 74 -11 vhcurveto
            250 23 rlineto
            return
          </CharString>
          <CharString index="13">
            hstem
            484 -5 rmoveto
            144 22 -83 251 -129 428 -179 -13 -134 -430 -88 -243 128 -10 53 190 rlineto
            239 hlineto
            return
          </CharString>
          <CharString index="14">
            -94 callsubr
            -109 376 -43 callsubr
            return
          </CharString>
          <CharString index="15">
            -101 callsubr
            endchar
          </CharString>
          <CharString index="16">
            rmoveto
            146 85 -15 62 -131 -47 -129 47 -15 -62 rlineto
            return
          </CharString>
          <CharString index="17">
            -40 -32 -33 -43 -30 21 -30 34 41 32 32 46 37 -22 21 -34 hvcurveto
            return
          </CharString>
          <CharString index="18">
            -41 -32 -33 -43 -30 22 -30 35 39 32 32 46 37 -21 21 -34 hvcurveto
            return
          </CharString>
          <CharString index="19">
            rmoveto
            -124 -35 -45 -99 -83 -44 56 92 vhcurveto
            16 438 -144 -25 10 -490 rlineto
            -108 93 -83 120 167 116 109 157 vhcurveto
            11 440 -140 -25 rlineto
            return
          </CharString>
          <CharString index="20">
            -96 callsubr
            endchar
          </CharString>
          <CharString index="21">
            rmoveto
            0 131 -30 104 -18 vhcurveto
            5 72 rlineto
            -101 30 -128 48 0 vvcurveto
            return
          </CharString>
          <CharString index="22">
            366 14 callsubr
            -242 hlineto
            -7 154 1 40 rlineto
            193 14 callsubr
            -200 hlineto
            6 177 rlineto
            225 hlineto
            11 107 rlineto
            -375 13 callsubr
            rlineto
            return
          </CharString>
          <CharString index="23">
            rmoveto
            -35 -23 26 38 38 21 18 42 30 34 -7 -5 22 hvcurveto
            -67 vlineto
            -16 -20 -36 -25 -35 hhcurveto
            return
          </CharString>
          <CharString index="24">
            hstem
            192 509 -78 callsubr
            return
          </CharString>
          <CharString index="25">
            hstem
            457 278 -88 callsubr
            return
          </CharString>
          <CharString index="26">
            -86 callsubr
            endchar
          </CharString>
          <CharString index="27">
            -35 callsubr
            134 -26 callsubr
            return
          </CharString>
          <CharString index="28">
            hstem
            80 hmoveto
            -85 callsubr
            return
          </CharString>
          <CharString index="29">
            rmoveto
            -134 -25 11 -241 -80 callsubr
            return
          </CharString>
          <CharString index="30">
            rmoveto
            -89 callsubr
            -163 hmoveto
            -90 callsubr
            endchar
          </CharString>
          <CharString index="31">
            -84 callsubr
            endchar
          </CharString>
          <CharString index="32">
            -48 -35 -38 -47 -35 23 -34 41 45 36 37 51 43 -24 23 -38 hvcurveto
            return
          </CharString>
          <CharString index="33">
            254 rmoveto
            12 250 -135 -25 11 -263 rlineto
            -60 vlineto
            -9 -16 -46 -25 -31 hhcurveto
            return
          </CharString>
          <CharString index="34">
            222 695 -46 callsubr
            return
          </CharString>
          <CharString index="35">
            6 callsubr
            hstemhm
            hintmask 10110000
            -71 callsubr
            hintmask 01110000
            19 callsubr
            260 rlineto
            6 57 vlineto
            7 7 0 1 7 hvcurveto
            hintmask 10110000
            -32 callsubr
            endchar
          </CharString>
          <CharString index="36">
            436 -11 rmoveto
            121 62 -174 246 rlineto
            74 40 50 74 89 vvcurveto
            115 -82 75 -128 vhcurveto
            -217 13 callsubr
            rlineto
            return
          </CharString>
          <CharString index="37">
            0 17 -89 5 -151 vhcurveto
            -80 callsubr
            return
          </CharString>
          <CharString index="38">
            -29 callsubr
            -181 118 -140 153 return
          </CharString>
          <CharString index="39">
            -108 -66 103 168 132 62 80 101 111 55 -84 -169 return
          </CharString>
          <CharString index="40">
            -12 -243 rlineto
            140 24 callsubr
            return
          </CharString>
          <CharString index="41">
            hstem
            -73 callsubr
            rlineto
            return
          </CharString>
          <CharString index="42">
            -3 55 -7 58 0 vvcurveto
            -121 -26 rlineto
            -70 callsubr
            73 vlineto
            return
          </CharString>
          <CharString index="43">
            -38 callsubr
            210 -20 -104 callsubr
            return
          </CharString>
          <CharString index="44">
            rmoveto
            -4 -5 -14 -85 8 -6 rlineto
            5 hlineto
            0 57 32 48 34 22 -17 -26 -36 -24 -18 -49 vhcurveto
            -46 hlineto
            -16 -83 rlineto
            71 hlineto
            59 31 -22 -40 -26 -28 -20 -43 -53 -53 46 0 hvcurveto
            -4 1 -10 -3 -31 -84 4 -8 rlineto
            0 58 -39 83 103 78 62 85 51 -24 34 -54 25 vhcurveto
            35 20 22 35 40 vvcurveto
            63 -62 45 -79 -61 -61 -20 0 vhcurveto
            return
          </CharString>
          <CharString index="45">
            40 callsubr
            728 -20 -105 callsubr
            return
          </CharString>
          <CharString index="46">
            hstem
            72 -193 rmoveto
            129 -27 84 249 177 465 -123 15 -72 -242 -24 -73 rlineto
            -13 hlineto
            -33 101 -64 213 -133 -25 101 -243 74 -202 rlineto
            return
          </CharString>
          <CharString index="47">
            -20 hstemhm
            hintmask 10111000
            -71 callsubr
            hintmask 01111000
            19 callsubr
            260 rlineto
            6 57 vlineto
            7 7 0 1 7 hvcurveto
            hintmask 10111000
            -32 callsubr
            return
          </CharString>
          <CharString index="48">
            8 callsubr
            210 -20 -103 callsubr
            return
          </CharString>
          <CharString index="49">
            47 483 rmoveto
            -70 callsubr
            36 vlineto
            41 47 36 11 77 hhcurveto
            11 156 rlineto
            -83 -76 -121 -20 -12 hvcurveto
            return
          </CharString>
          <CharString index="50">
            -95 callsubr
            -144 174 -55 callsubr
            return
          </CharString>
          <CharString index="51">
            rmoveto
            12 249 -134 -25 11 -241 1 -248 rlineto
            -76 -15 -25 -44 -26 -34 9 0 vhcurveto
            -31 -114 rlineto
            0 42 -9 40 103 86 115 139 vhcurveto
            return
          </CharString>
          <CharString index="52">
            rmoveto
            43 21 -25 -42 -15 -3 -23 0 hvcurveto
            -170 -21 rlineto
            72 7 43 54 59 hhcurveto
            return
          </CharString>
          <CharString index="53">
            24 135 -48 callsubr
            return
          </CharString>
          <CharString index="54">
            -132 -105 -136 -170 -127 82 -93 110 return
          </CharString>
          <CharString index="55">
            rmoveto
            -73 -20 -28 -46 -26 -33 11 0 vhcurveto
            -32 -120 rlineto
            0 42 -9 40 111 78 109 145 vhcurveto
            14 451 -142 -25 rlineto
            endchar
          </CharString>
          <CharString index="56">
            7 -39 33 -65 0 vvcurveto
            104 46 rlineto
            -23 45 -10 38 46 vvcurveto
            return
          </CharString>
          <CharString index="57">
            -20 hstem
            -22 callsubr
            -65 callsubr
            -5 callsubr
            return
          </CharString>
          <CharString index="58">
            27 9 callsubr
            210 -20 -97 callsubr
            return
          </CharString>
          <CharString index="59">
            rmoveto
            -80 55 -55 79 71 46 50 33 22 vhcurveto
            return
          </CharString>
          <CharString index="60">
            29 callsubr
            210 -20 -95 callsubr
            return
          </CharString>
          <CharString index="61">
            rmoveto
            2 callsubr
            -67 callsubr
            return
          </CharString>
          <CharString index="62">
            751 -91 callsubr
            return
          </CharString>
          <CharString index="63">
            47 callsubr
            240 6 112 rlineto
            82 -44 50 -71 return
          </CharString>
          <CharString index="64">
            rmoveto
            79 -270 rlineto
            -178 hlineto
            86 270 rlineto
            return
          </CharString>
          <CharString index="65">
            10 callsubr
            614 -20 -93 callsubr
            return
          </CharString>
          <CharString index="66">
            -56 callsubr
            -51 708 rmoveto
            -50 -39 -40 -51 -41 30 -32 38 50 38 40 54 44 -25 26 -42 hvcurveto
            endchar
          </CharString>
          <CharString index="67">
            37 7 callsubr
            220 -20 -79 callsubr
            return
          </CharString>
          <CharString index="68">
            46 callsubr
            801 -20 -82 callsubr
            return
          </CharString>
          <CharString index="69">
            14 0 102 -84 -21 225 73 102 118 return
          </CharString>
          <CharString index="70">
            25 -11 235 return
          </CharString>
          <CharString index="71">
            156 54 callsubr
            -58 callsubr
            hintmask 10100000
            -3 69 -9 77 0 vvcurveto
            return
          </CharString>
          <CharString index="72">
            -12 -243 return
          </CharString>
          <CharString index="73">
            rmoveto
            -19 35 -7 22 22 vvcurveto
            35 17 35 42 49 vhcurveto
            -41 30 rlineto
            -82 -63 -42 -61 -56 vvcurveto
            -30 11 -28 23 -29 vhcurveto
            return
          </CharString>
          <CharString index="74">
            rmoveto
            105 103 rlineto
            45 46 28 52 44 vvcurveto
            69 -57 46 -84 -67 -71 -37 0 vhcurveto
            -2 -1 -3 -4 -19 -100 9 -6 rlineto
            6 hlineto
            0 72 45 64 28 10 -7 -21 -21 -14 -27 -27 -29 vhcurveto
            -149 -164 -14 -84 176 5 return
          </CharString>
          <CharString index="75">
            -19 322 rmoveto
            79 38 -32 -67 20 callsubr
            226 rlineto
            return
          </CharString>
          <CharString index="76">
            259 rmoveto
            0 15 56 44 vvcurveto
            98 -57 58 -97 return
          </CharString>
          <CharString index="77">
            12 -38 25 -48 0 vvcurveto
            106 45 rlineto
            return
          </CharString>
          <CharString index="78">
            rmoveto
            -192 -138 -164 -226 return
          </CharString>
          <CharString index="79">
            -20 hstem
            283 395 rmoveto
            -74 149 -65 152 -141 -25 96 -175 126 -256 -10 -240 70 callsubr
            -11 257 130 254 92 167 -122 18 -75 -165 -74 -136 rlineto
            return
          </CharString>
          <CharString index="80">
            135 -375 rmoveto
            -142 -59 -88 -96 return
          </CharString>
          <CharString index="81">
            -37 callsubr
            rlineto
            return
          </CharString>
          <CharString index="82">
            -35 callsubr
            rlineto
            return
          </CharString>
          <CharString index="83">
            rmoveto
            -118 -86 -104 -143 -122 69 -83 95 126 78 94 154 121 -66 83 -98 hvcurveto
            58 -239 rmoveto
            -101 -19 -36 -53 -60 -24 45 118 90 22 36 55 62 17 -33 -119 vhcurveto
            return
          </CharString>
          <CharString index="84">
            hintmask 10100000
            -65 callsubr
            hintmask 11000000
            -5 callsubr
            endchar
          </CharString>
          <CharString index="85">
            336 -5 rmoveto
            -44 callsubr
            -85 -71 -86 -22 -17 vhcurveto
            return
          </CharString>
          <CharString index="86">
            164 -83 callsubr
            -11 callsubr
            return
          </CharString>
          <CharString index="87">
            rmoveto
            -214 -69 rlineto
            -60 vlineto
            98 1 6 -157 -8 -172 50 callsubr
            -8 183 rlineto
            return
          </CharString>
          <CharString index="88">
            31 callsubr
            -35 callsubr
            135 -26 callsubr
            return
          </CharString>
          <CharString index="89">
            -68 vlineto
            -111 -88 -71 -89 hvcurveto
            return
          </CharString>
          <CharString index="90">
            hvcurveto
            13 304 -134 -25 11 -240 return
          </CharString>
          <CharString index="91">
            -3 callsubr
            -130 return
          </CharString>
          <CharString index="92">
            rmoveto
            383 41 callsubr
            -383 hlineto
            return
          </CharString>
          <CharString index="93">
            -250 -92 37 callsubr
            33 115 -87 callsubr
          </CharString>
          <CharString index="94">
            -55 callsubr
            endchar
          </CharString>
          <CharString index="95">
            -220 rmoveto
            82 11 62 45 49 vvcurveto
            34 -30 28 -53 13 vhcurveto
            return
          </CharString>
          <CharString index="96">
            -40 482 rmoveto
            -50 -39 -40 -51 -37 26 -36 42 49 39 39 55 45 -26 25 -41 hvcurveto
            return
          </CharString>
          <CharString index="97">
            398 37 callsubr
            150 416 -34 callsubr
            return
          </CharString>
          <CharString index="98">
            rlineto
            46 -6 23 -15 -19 vvcurveto
            -25 -34 -16 -56 -10 vhcurveto
            endchar
          </CharString>
          <CharString index="99">
            91 156 -20 hstem
            17 215 rmoveto
            145 -155 hlineto
            100 9 rlineto
            146 138 vlineto
            8 91 rlineto
            -146 156 hlineto
            -100 -9 rlineto
            -147 -137 vlineto
            return
          </CharString>
          <CharString index="100">
            1 -76 rlineto
            -53 hlineto
            -11 -82 rlineto
            66 hlineto
            4 -159 -35 callsubr
            135 -37 callsubr
            1 142 rlineto
            97 hlineto
            11 82 rlineto
            -108 hlineto
            1 95 rlineto
            60 return
          </CharString>
          <CharString index="101">
            -67 -22 -57 -43 -63 hhcurveto
            -99 -61 96 156 125 60 83 92 77 64 -55 0 hvcurveto
            68 139 rlineto
            0 -62 43 -116 -177 -139 -171 -220 return
          </CharString>
          <CharString index="102">
            10 16 46 25 45 21 callsubr
            return
          </CharString>
          <CharString index="103">
            77 -271 rmoveto
            -92 -34 -50 -59 return
          </CharString>
          <CharString index="104">
            -126 -111 -143 -163 return
          </CharString>
          <CharString index="105">
            185 -114 134 -157 return
          </CharString>
          <CharString index="106">
            197 133 158 234 return
          </CharString>
          <CharString index="107">
            -46 56 rlineto
            0 -64 -60 -65 -59 -36 return
          </CharString>
          <CharString index="108">
            -30 129 91 79 91 hstem
            17 299 -15 callsubr
            -8 -261 -15 callsubr
            endchar
          </CharString>
          <CharString index="109">
            -142 -25 12 -427 return
          </CharString>
          <CharString index="110">
            rmoveto
            -105 -132 58 -48 167 187 -167 177 -58 -48 rlineto
            return
          </CharString>
          <CharString index="111">
            rmoveto
            105 132 -58 48 -167 -187 167 -177 58 48 rlineto
            return
          </CharString>
          <CharString index="112">
            rmoveto
            421 845 -79 32 -421 -845 rlineto
            return
          </CharString>
          <CharString index="113">
            124 10 -21 32 -21 266 97 226 101 return
          </CharString>
          <CharString index="114">
            0 106 194 106 177 107 return
          </CharString>
          <CharString index="115">
            206 -11 28 callsubr
            return
          </CharString>
          <CharString index="116">
            -11 113 287 126 return
          </CharString>
          <CharString index="117">
            188 16 -21 195 106 return
          </CharString>
          <CharString index="118">
            243 rmoveto
            -13 -456 137 25 -5 191 rlineto
            -2 17 17 -1 13 hhcurveto
            133 106 117 181 131 -69 76 -82 return
          </CharString>
          <CharString index="119">
            rmoveto
            -105 -11 -126 0 vhcurveto
            57 -3 31 84 15 58 17 102 rlinecurve
            return
          </CharString>
          <CharString index="120">
            hlineto
            12 -447 return
          </CharString>
          <CharString index="121">
            hlineto
            11 106 rlineto
            return
          </CharString>
          <CharString index="122">
            102 -21 364 -20 hstem
            120 261 3 callsubr
            return
          </CharString>
          <CharString index="123">
            102 -21 364 -20 hstem
            127 265 4 callsubr
            return
          </CharString>
          <CharString index="124">
            rmoveto
            50 29 -39 -91 -94 -36 -43 -60 -23 -35 5 4 -24 hvcurveto
            -4 143 rlineto
            86 vlineto
            7 12 44 22 47 hhcurveto
            return
          </CharString>
          <CharString index="125">
            411 -21 244 -20 hstem
            57 624 12 callsubr
            return
          </CharString>
          <CharString index="126">
            -25 callsubr
            134 hlineto
            -12 return
          </CharString>
          <CharString index="127">
            -81 -38 -46 -67 hvcurveto
            -68 hlineto
            7 return
          </CharString>
          <CharString index="128">
            hhcurveto
            49 12 -23 -92 hvcurveto
            return
          </CharString>
          <CharString index="129">
            136 68 117 0 return
          </CharString>
          <CharString index="130">
            114 76 -183 216 175 164 -94 64 return
          </CharString>
          <CharString index="131">
            hlineto
            -12 260 return
          </CharString>
          <CharString index="132">
            -20 hstem
            195 774 rmoveto
            -19 callsubr
            return
          </CharString>
          <CharString index="133">
            -67 callsubr
            rlineto
            endchar
          </CharString>
          <CharString index="134">
            -177 -123 -21 885 -20 hstem
            return
          </CharString>
          <CharString index="135">
            106 483 122 return
          </CharString>
          <CharString index="136">
            -9 -11 113 310 103 return
          </CharString>
          <CharString index="137">
            16 -21 373 136 return
          </CharString>
          <CharString index="138">
            -137 -25 12 -506 return
          </CharString>
          <CharString index="139">
            361 rmoveto
            47 36 37 48 41 -27 28 -38 -45 -35 -38 -50 -41 23 -25 39 hvcurveto
            return
          </CharString>
          <CharString index="140">
            148 rmoveto
            -47 -36 -37 -48 -41 27 -28 38 45 35 38 50 41 -23 25 -39 hvcurveto
            return
          </CharString>
          <CharString index="141">
            131 56 -75 -174 -150 -64 -91 -106 -26 -45 3 3 -42 hvcurveto
            -7 162 return
          </CharString>
          <CharString index="142">
            rmoveto
            28 21 -21 -30 -39 -24 -26 -34 -26 -22 26 30 36 23 24 34 hvcurveto
            endchar
          </CharString>
          <CharString index="143">
            vmoveto
            38 callsubr
          </CharString>
          <CharString index="144">
            -21 267 -20 hstem
            return
          </CharString>
          <CharString index="145">
            -75 callsubr
            endchar
          </CharString>
          <CharString index="146">
            rmoveto
            -67 -50 -50 -71 -59 48 -48 57 71 48 52 74 61 -44 41 -63 hvcurveto
            return
          </CharString>
          <CharString index="147">
            55 0 122 -104 -21 return
          </CharString>
          <CharString index="148">
            hlineto
            8 91 rlineto
            return
          </CharString>
          <CharString index="149">
            566 -91 callsubr
            return
          </CharString>
          <CharString index="150">
            -4 108 56 -2 8 86 -69 -3 11 262 -130 -16 rlineto
            return
          </CharString>
          <CharString index="151">
            hlineto
            138 110 102 132 121 -82 79 -128 hvcurveto
            return
          </CharString>
          <CharString index="152">
            215 134 152 243 192 -107 114 -180 return
          </CharString>
          <CharString index="153">
            196 -11 120 return
          </CharString>
          <CharString index="154">
            135 25 -11 return
          </CharString>
          <CharString index="155">
            -204 -123 -21 905 -20 hstem
            80 753 rmoveto
            return
          </CharString>
          <CharString index="156">
            329 hlineto
            11 114 -205 -16 -7 162 return
          </CharString>
          <CharString index="157">
            rlineto
            116 hlineto
            return
          </CharString>
          <CharString index="158">
            -153 21 -21 return
          </CharString>
          <CharString index="159">
            -50 52 rlineto
            0 -39 -61 -54 -62 -34 54 100 return
          </CharString>
          <CharString index="160">
            55 callsubr
            108 267 130 return
          </CharString>
          <CharString index="161">
            5 -20 hstemhm
            hintmask 11000000
            return
          </CharString>
          <CharString index="162">
            -192 -21 213 return
          </CharString>
          <CharString index="163">
            154 hstem
            113 return
          </CharString>
          <CharString index="164">
            vvcurveto
            -29 -19 -17 -33 -68 -55 72 0 vhcurveto
            return
          </CharString>
          <CharString index="165">
            hlineto
            -18 -116 75 7 17 109 rlineto
            return
          </CharString>
          <CharString index="166">
            21 -21 402 82 176 114 hstem
            return
          </CharString>
          <CharString index="167">
            234 18 -21 24 -21 return
          </CharString>
          <CharString index="168">
            0 60 -84 107 100 90 83 93 vhcurveto
            return
          </CharString>
          <CharString index="169">
            -177 -144 74 734 74 hstem
            return
          </CharString>
          <CharString index="170">
            -153 -112 -21 891 -20 hstem
            return
          </CharString>
          <CharString index="171">
            vlineto
            -9 -12 -40 -27 -42 hhcurveto
            endchar
          </CharString>
          <CharString index="172">
            -170 -21 552 154 hstem
            return
          </CharString>
          <CharString index="173">
            215 91 hstem
            -8 215 rmoveto
            return
          </CharString>
          <CharString index="174">
            rlineto
            -134 -106 -130 -167 return
          </CharString>
          <CharString index="175">
            -98 -21 119 190 -82 82 return
          </CharString>
          <CharString index="176">
            hlineto
            -5 -47 rlineto
            return
          </CharString>
          <CharString index="177">
            rlineto
            140 hlineto
            return
          </CharString>
          <CharString index="178">
            -199 -21 return
          </CharString>
        <CharString name=".notdef">
          -301 endchar
        </CharString>
        <CharString name="A">
          10 callsubr
          400 -20 -93 callsubr
          endchar
        </CharString>
        <CharString name="AE">
          398 0 106 84 106 4 106 177 107 hstem
          462 hmoveto
          337 14 callsubr
          -235 hlineto
          -42 162 -8 32 rlineto
          209 14 callsubr
          -244 hlineto
          -41 177 rlineto
          296 hlineto
          11 107 rlineto
          -500 hlineto
          -167 -437 -105 -243 127 -10 66 190 rlineto
          239 hlineto
          -82 376 rmoveto
          60 -270 rlineto
          -177 hlineto
          104 270 rlineto
          endchar
        </CharString>
        <CharString name="Aacute">
          -42 callsubr
          120 344 -98 callsubr
        </CharString>
        <CharString name="Acircumflex">
          10 callsubr
          602 -20 -93 callsubr
          9 185 -91 callsubr
          endchar
        </CharString>
        <CharString name="Adieresis">
          10 callsubr
          481 136 -93 callsubr
          99 347 -77 callsubr
        </CharString>
        <CharString name="Agrave">
          -42 callsubr
          -109 242 -81 callsubr
        </CharString>
        <CharString name="Aring">
          10 callsubr
          435 56 116 56 -94 callsubr
          -108 769 39 callsubr
          -1 -393 -43 callsubr
          13 337 35 callsubr
        </CharString>
        <CharString name="Atilde">
          10 callsubr
          592 -20 -94 callsubr
          25 698 -101 callsubr
          -162 -279 -43 callsubr
          endchar
        </CharString>
        <CharString name="B">
          125 -11 103 205 97 195 101 hstem
          297 690 rmoveto
          -217 13 callsubr
          -25 callsubr
          0 127 -11 58 158 116 91 121 80 -41 55 -89 31 vhcurveto
          67 32 29 53 78 vvcurveto
          97 -80 63 -128 vhcurveto
          -13 -393 rmoveto
          88 38 -32 -72 -64 -42 -37 -70 -21 -33 2 3 -35 hvcurveto
          -7 163 1 37 rlineto
          58 292 rmoveto
          78 37 -28 -61 -67 -37 -39 -68 hvcurveto
          -65 hlineto
          6 195 rlineto
          endchar
        </CharString>
        <CharString name="C">
          96 -11 125 460 127 hstem
          465 224 rmoveto
          -6 callsubr
          -180 115 -141 148 115 96 70 117 44 vhcurveto
          endchar
        </CharString>
        <CharString name="Ccedilla">
          96 71 callsubr
          794 127 hstem
          263 -12 callsubr
          5 32 99 12 80 67 40 105 rlinecurve
          -83 48 rlineto
          -6 callsubr
          -170 101 -134 136 -15 vhcurveto
          -15 -76 -9 callsubr
        </CharString>
        <CharString name="D">
          209 -11 103 490 108 hstem
          285 -11 rmoveto
          45 callsubr
          hvcurveto
          -267 13 callsubr
          -25 callsubr
          0 138 -11 67 vhcurveto
          26 593 rmoveto
          34 callsubr
          10 321 rlineto
          1 27 41 0 25 hhcurveto
          endchar
        </CharString>
        <CharString name="E">
          37 7 callsubr
          -79 callsubr
          endchar
        </CharString>
        <CharString name="Eacute">
          -40 callsubr
          298 667 -98 callsubr
        </CharString>
        <CharString name="Ecircumflex">
          37 7 callsubr
          208 -20 hstem
          279 -45 callsubr
          -55 -836 rmoveto
          -85 callsubr
          endchar
        </CharString>
        <CharString name="Edieresis">
          37 7 callsubr
          87 136 -79 callsubr
          114 670 -102 callsubr
        </CharString>
        <CharString name="Egrave">
          -40 callsubr
          69 565 -81 callsubr
        </CharString>
        <CharString name="Eth">
          224 -11 103 227 47 216 108 hstem
          4 319 rmoveto
          101 hlineto
          2 -76 -25 callsubr
          0 138 -11 67 45 callsubr
          vhcurveto
          -267 hlineto
          8 -324 rlineto
          -94 hlineto
          358 hmoveto
          -141 hlineto
          7 215 rlineto
          1 27 41 0 25 hhcurveto
          34 callsubr
          2 59 rlineto
          138 hlineto
          endchar
        </CharString>
        <CharString name="Euro">
          131 -11 119 135 47 77 47 115 121 hstem
          456 290 rmoveto
          -232 hlineto
          -2 15 0 17 17 vvcurveto
          9 0 10 1 9 vhcurveto
          229 hlineto
          4 47 rlineto
          -226 hlineto
          72 18 46 43 66 hhcurveto
          71 58 -51 0 hvcurveto
          65 132 rlineto
          0 -58 40 -108 -128 -106 -97 -139 -41 vhcurveto
          -95 69 callsubr
          89 hlineto
          -5 -25 -2 -26 -26 vvcurveto
          -77 69 callsubr
          84 hlineto
          -146 17 100 -108 125 hhcurveto
          107 89 65 109 41 hvcurveto
          -80 46 rlineto
          -62 -20 -50 -39 -59 hhcurveto
          -70 -47 48 87 -19 hvcurveto
          221 hlineto
          endchar
        </CharString>
        <CharString name="F">
          -13 21 -21 293 106 184 107 hstem
          431 583 rmoveto
          11 107 rlineto
          -362 13 callsubr
          -67 callsubr
          1 33 rlineto
          183 14 callsubr
          -191 hlineto
          6 184 rlineto
          endchar
        </CharString>
        <CharString name="G">
          181 -11 108 170 101 206 127 hstem
          315 267 rmoveto
          129 -155 hlineto
          -10 -32 -34 -5 -36 hhcurveto
          -110 -66 100 169 125 71 83 108 87 84 -55 0 hvcurveto
          58 139 rlineto
          0 -68 43 -130 -195 -151 -171 -220 -193 116 -128 175 62 84 15 28 96 vhcurveto
          -7 173 9 163 rlineto
          -240 hlineto
          endchar
        </CharString>
        <CharString name="H">
          235 21 -21 296 106 293 -20 hstem
          610 695 rmoveto
          -142 -25 7 -268 rlineto
          -263 hlineto
          10 293 2 callsubr
          -67 callsubr
          1 36 rlineto
          269 hlineto
          2 -53 26 callsubr
        </CharString>
        <CharString name="I">
          51 callsubr
          695 -20 -66 callsubr
          endchar
        </CharString>
        <CharString name="Iacute">
          51 callsubr
          910 -20 -66 callsubr
          55 650 -98 callsubr
        </CharString>
        <CharString name="Icircumflex">
          51 callsubr
          898 -20 hstem
          152 -45 callsubr
          214 -141 -46 callsubr
          rlineto
          endchar
        </CharString>
        <CharString name="Idieresis">
          51 callsubr
          777 136 -66 callsubr
          -129 653 -102 callsubr
        </CharString>
        <CharString name="Igrave">
          51 callsubr
          910 -20 -66 callsubr
          -174 548 -81 callsubr
        </CharString>
        <CharString name="Itilde">
          51 callsubr
          888 -20 -66 callsubr
          82 628 -92 callsubr
        </CharString>
        <CharString name="J">
          -102 -10 118 587 -20 hstem
          157 209 -52 callsubr
        </CharString>
        <CharString name="Jcircumflex">
          -102 -10 118 790 -20 hstem
          215 -45 callsubr
          86 -627 -52 callsubr
        </CharString>
        <CharString name="K">
          123 10 -21 32 -21 695 -20 hstemhm
          hintmask 01100000
          -73 callsubr
          2 74 rlineto
          hintmask 10100000
          244 -345 128 80 -244 289 230 267 -102 68 -255 -324 rlineto
          endchar
        </CharString>
        <CharString name="L">
          -29 0 106 589 -20 hstem
          80 hmoveto
          49 callsubr
          14 435 2 callsubr
          rlineto
          endchar
        </CharString>
        <CharString name="Lslash">
          -9 0 106 589 -20 hstem
          242 695 rmoveto
          -142 -25 8 -289 -105 -58 18 -44 88 49 3 -85 -25 callsubr
          49 callsubr
          4 135 137 76 -20 44 -115 -64 rlineto
          endchar
        </CharString>
        <CharString name="M">
          292 21 -21 697 -20 hstem
          370 312 rmoveto
          -126 385 -159 -25 -6 -429 -14 -243 rlineto
          124 hlineto
          -7 260 9 263 112 -337 123 6 120 331 11 -263 -5 -260 rlineto
          135 hlineto
          -19 258 -4 430 -138 4 -146 -380 rlineto
          endchar
        </CharString>
        <CharString name="N">
          60 callsubr
          693 -20 hstemhm
          hintmask 01100000
          609 692 rmoveto
          -122 -15 10 -473 -297 489 -120 -6 12 -444 -25 callsubr
          125 hlineto
          -14 260 rlineto
          219 vlineto
          hintmask 10100000
          298 -482 118 25 -11 238 rlineto
          endchar
        </CharString>
        <CharString name="Nacute">
          60 callsubr
          910 -20 hstemhm
          hintmask 01100000
          609 692 rmoveto
          -122 -15 10 -473 -297 489 -120 -6 12 -444 -25 callsubr
          125 hlineto
          -14 260 rlineto
          219 vlineto
          hintmask 10100000
          298 -482 118 25 -11 238 rlineto
          -140 650 -98 callsubr
        </CharString>
        <CharString name="Ntilde">
          60 callsubr
          888 -20 hstemhm
          hintmask 01100000
          609 692 rmoveto
          -122 -15 10 -473 -297 489 -120 -6 12 -444 -25 callsubr
          125 hlineto
          -14 260 rlineto
          219 vlineto
          hintmask 10100000
          298 -482 118 25 -11 238 rlineto
          -113 628 -92 callsubr
        </CharString>
        <CharString name="O">
          8 callsubr
          -103 callsubr
          endchar
        </CharString>
        <CharString name="OE">
          438 7 callsubr
          hstem
          828 hmoveto
          11 106 rlineto
          -277 hlineto
          -7 154 1 40 rlineto
          228 14 callsubr
          -235 hlineto
          6 177 rlineto
          260 hlineto
          11 107 rlineto
          -477 hlineto
          -185 -145 -166 -214 -175 118 -135 153 hvcurveto
          137 174 rmoveto
          -58 -21 -15 -67 -117 -67 96 169 129 65 78 108 79 17 -12 -68 vhcurveto
          endchar
        </CharString>
        <CharString name="Oacute">
          -59 callsubr
          -55 585 -98 callsubr
        </CharString>
        <CharString name="Ocircumflex">
          8 callsubr
          198 -20 hstem
          329 -45 callsubr
          175 -136 -107 callsubr
          endchar
        </CharString>
        <CharString name="Odieresis">
          8 callsubr
          77 136 -103 callsubr
          -239 588 -102 callsubr
        </CharString>
        <CharString name="Ograve">
          -59 callsubr
          -284 483 -81 callsubr
        </CharString>
        <CharString name="Oslash">
          212 -78 -21 88 28 callsubr
          80 -20 hstem
          363 700 -29 callsubr
          -109 42 -93 67 -58 hvcurveto
          -72 -130 43 -19 67 121 rlineto
          -21 37 42 -12 45 hhcurveto
          -1 callsubr
          112 -43 94 -68 56 hvcurveto
          66 119 -44 18 -61 -110 rlineto
          19 -36 -41 11 -44 hhcurveto
          -27 callsubr
          -40 -34 14 25 -27 vhcurveto
          212 384 rlineto
          29 -42 15 -65 -86 vvcurveto
          -329 41 rmoveto
          132 62 80 101 35 29 -8 -17 24 vhcurveto
          -209 -378 rlineto
          -27 46 -15 65 80 vvcurveto
          endchar
        </CharString>
        <CharString name="Otilde">
          8 callsubr
          188 -20 -103 callsubr
          -28 563 -92 callsubr
        </CharString>
        <CharString name="P">
          54 21 -21 256 97 236 101 hstem
          297 690 rmoveto
          -217 13 callsubr
          19 callsubr
          256 rlineto
          57 44 callsubr
          -36 -101 rmoveto
          79 38 -35 -74 20 callsubr
          236 rlineto
          endchar
        </CharString>
        <CharString name="Q">
          225 -108 -21 118 28 callsubr
          hstem
          360 700 -69 callsubr
          53 50 15 27 45 hvcurveto
          115 -160 99 73 -132 157 rlineto
          61 72 39 99 109 vvcurveto
          -2 callsubr
          vhcurveto
          135 -375 rmoveto
          -59 -11 -49 -18 -38 vhcurveto
          -120 143 -69 -48 119 -167 rlineto
          -8 -17 -19 -4 -20 hhcurveto
          -68 callsubr
          hvcurveto
          endchar
        </CharString>
        <CharString name="R">
          -72 callsubr
        </CharString>
        <CharString name="Racute">
          6 callsubr
          220 -60 callsubr
          183 321 -98 callsubr
        </CharString>
        <CharString name="Rcaron">
          6 callsubr
          208 -60 callsubr
          72 162 -91 callsubr
          endchar
        </CharString>
        <CharString name="Rcommaaccent">
          -72 callsubr
        </CharString>
        <CharString name="S">
          48 -11 125 460 126 hstem
          13 91 rmoveto
          0 80 -102 134 134 116 110 125 vhcurveto
          205 -310 -32 115 vvcurveto
          36 34 26 46 85 78 -59 0 vhcurveto
          68 146 rlineto
          0 -71 39 -105 -137 -116 -101 -120 vhcurveto
          -205 309 29 -114 vvcurveto
          -45 -38 -30 -59 -96 -74 85 0 vhcurveto
          endchar
        </CharString>
        <CharString name="T">
          31 21 -21 582 108 hstem
          575 vmoveto
          177 14 4 -346 -67 callsubr
          4 330 174 -15 11 115 rlineto
          -475 hlineto
          endchar
        </CharString>
        <CharString name="Thorn">
          54 0 231 -97 97 236 101 -101 223 hstemhm
          hintmask 10010000
          211 690 rmoveto
          -136 13 callsubr
          -25 callsubr
          134 hlineto
          hintmask 01100000
          -6 134 rlineto
          51 44 callsubr
          -85 hlineto
          hintmask 10010000
          49 -101 rmoveto
          79 38 -35 -74 -81 -38 -46 -67 hvcurveto
          -70 hlineto
          -1 29 6 207 rlineto
          endchar
        </CharString>
        <CharString name="U">
          46 callsubr
          586 -20 -82 callsubr
          endchar
        </CharString>
        <CharString name="Uacute">
          -39 callsubr
          -10 240 -98 callsubr
        </CharString>
        <CharString name="Ucircumflex">
          46 callsubr
          789 -20 hstem
          324 -45 callsubr
          277 -558 -88 callsubr
          endchar
        </CharString>
        <CharString name="Udieresis">
          46 callsubr
          668 136 -82 callsubr
          -194 243 -102 callsubr
        </CharString>
        <CharString name="Ugrave">
          -39 callsubr
          -239 138 -81 callsubr
        </CharString>
        <CharString name="V">
          144 16 -21 701 -20 hstem
          296 125 rmoveto
          -48 185 -91 386 -142 -25 116 -409 71 -267 185 13 78 273 119 397 -121 18 -105 -399 -50 -172 rlineto
          endchar
        </CharString>
        <CharString name="W">
          470 16 -21 701 -20 hstem
          641 125 rmoveto
          -43 185 -79 386 -132 -25 23 -91 -73 -270 -53 -185 rlineto
          -11 hlineto
          -45 185 -81 386 -130 -25 104 -409 60 -267 180 13 67 273 30 113 34 -132 57 -267 183 13 67 273 109 397 -113 18 -96 -399 -47 -172 rlineto
          endchar
        </CharString>
        <CharString name="X">
          143 11 -21 710 -20 hstem
          463 -9 rmoveto
          123 78 -212 284 183 285 -105 62 -155 -254 -161 250 -124 -81 212 -272 -197 -300 108 -53 161 260 rlineto
          endchar
        </CharString>
        <CharString name="Y">
          114 21 -21 696 -28 callsubr
          endchar
        </CharString>
        <CharString name="Yacute">
          114 21 -21 910 -28 callsubr
          103 515 -98 callsubr
        </CharString>
        <CharString name="Z">
          87 0 121 -106 -21 573 122 6 -20 hstemhm
          hintmask 10100000
          39 102 rmoveto
          hintmask 01100000
          -17 -108 246 11 241 -11 20 138 -351 -22 323 478 rlineto
          hintmask 10010000
          15 107 -229 -12 -228 11 -24 -138 326 22 rlineto
          endchar
        </CharString>
        <CharString name="a">
          -38 callsubr
          hstemhm
          hintmask 10110000
          -54 callsubr
          hintmask 01110000
          -106 callsubr
          hintmask 10110000
          176 -33 -76 callsubr
        </CharString>
        <CharString name="aacute">
          -64 callsubr
          324 590 -100 callsubr
          hintmask 10111000
          -159 -521 -76 callsubr
        </CharString>
        <CharString name="acircumflex">
          -38 callsubr
          198 -20 -104 callsubr
          213 431 -91 callsubr
          hintmask 10111000
          107 -549 -76 callsubr
        </CharString>
        <CharString name="acute">
          596 -21 150 -20 hstem
          198 725 -98 callsubr
        </CharString>
        <CharString name="adieresis">
          -38 callsubr
          77 136 -104 callsubr
          hintmask 10111000
          176 -33 -84 callsubr
          127 626 -77 callsubr
        </CharString>
        <CharString name="ae">
          244 -11 113 108 69 118 118 -103 103 hstemhm
          hintmask 11100000
          635 240 rmoveto
          20 21 rlineto
          0 15 54 44 vvcurveto
          98 -57 58 -97 -55 -52 -27 -44 -41 vhcurveto
          48 -18 -41 23 -64 hhcurveto
          -90 -113 -78 0 hvcurveto
          29 -79 rlineto
          0 73 39 52 65 20 -20 -65 vhcurveto
          -27 vlineto
          -73 -6 rlineto
          -116 -8 -68 -57 -90 vvcurveto
          -80 59 -55 85 72 47 50 38 25 vhcurveto
          -55 32 53 -33 65 hhcurveto
          22 callsubr
          hvcurveto
          -46 56 rlineto
          0 -64 -60 -65 -61 -36 42 78 -10 vhcurveto
          hintmask 11010000
          107 190 rmoveto
          42 22 -23 -44 -15 -3 -21 0 hvcurveto
          -168 -15 rlineto
          69 9 43 49 55 hhcurveto
          -200 -283 rmoveto
          -19 -22 -30 -19 -29 hhcurveto
          -41 -27 26 38 38 16 14 48 3 hvcurveto
          75 5 rlineto
          -6 vlineto
          -29 3 -27 7 -24 vhcurveto
          endchar
        </CharString>
        <CharString name="agrave">
          -64 callsubr
          95 488 -86 callsubr
          hintmask 10111000
          70 -623 -76 callsubr
        </CharString>
        <CharString name="ampersand">
          181 -11 101 236 91 129 104 hstem
          369 404 rmoveto
          12 -58 10 -55 4 -39 -69 64 rcurveline
          -121 107 -16 19 -2 42 rrcurveto
          39 -3 29 23 51 hhcurveto
          70 64 -57 0 hvcurveto
          62 118 rlineto
          0 -62 43 -116 -113 -92 -76 -92 -45 23 -45 57 -59 vhcurveto
          -41 -24 -77 -57 -89 vvcurveto
          -100 90 -74 121 69 66 34 51 43 vhcurveto
          46 -48 34 -37 0 vvcurveto
          82 73 rlineto
          0 -51 51 -62 60 vhcurveto
          2 10 1 10 11 vvcurveto
          30 -4 36 -9 56 vhcurveto
          117 41 callsubr
          -210 hlineto
          -132 -169 rmoveto
          35 -31 45 -43 42 -43 rrcurveto
          -27 -21 -33 -14 -46 hhcurveto
          -69 -48 45 66 34 23 31 24 23 hvcurveto
          14 -13 16 -14 18 -14 rrcurveto
          endchar
        </CharString>
        <CharString name="aring">
          -38 callsubr
          31 56 116 56 hstemhm
          hintmask 10111100
          -54 callsubr
          hintmask 01111100
          -106 callsubr
          218 639 39 callsubr
          hintmask 10111100
          -42 -672 -84 callsubr
          41 616 35 callsubr
        </CharString>
        <CharString name="asciicircum">
          1 callsubr
        </CharString>
        <CharString name="asciitilde">
          -30 214 -21 133 -20 hstem
          380 326 rmoveto
          -76 -44 -30 4 -113 34 -30 4 rlinecurve
          -26 -54 -48 -38 -35 hvcurveto
          28 -45 76 44 30 -4 113 -34 30 -4 rlinecurve
          26 54 48 38 35 hvcurveto
          endchar
        </CharString>
        <CharString name="asterisk">
          -153 382 -21 296 -20 hstem
          11 537 rmoveto
          90 -33 -84 -78 63 -36 59 75 48 -104 55 50 -53 79 113 13 -30 67 -92 -26 23 113 -73 -8 -5 -96 -99 57 rlineto
          endchar
        </CharString>
        <CharString name="at">
          258 -130 102 128 102 120 73 115 110 hstem
          223 235 -48 callsubr
          -30 callsubr
          -26 41 -9 32 52 vvcurveto
          178 vlineto
          111 -68 64 -119 -226 -161 -161 -225 -214 137 -150 210 179 137 81 0 vhcurveto
          -16 102 rlineto
          0 -130 -81 -147 -164 -114 123 153 161 98 101 160 76 34 -30 -67 vhcurveto
          -18 -18 callsubr
          176 -33 -76 callsubr
        </CharString>
        <CharString name="atilde">
          -38 callsubr
          188 -20 -104 callsubr
          351 568 -101 callsubr
          hintmask 10111000
          -203 -558 -76 callsubr
        </CharString>
        <CharString name="b">
          44 0 108 267 130 269 -20 hstem
          60 16 rmoveto
          0 112 -16 56 145 101 123 175 121 -62 86 -89 -67 -62 -80 -17 -12 vhcurveto
          108 vlineto
          13 258 31 callsubr
          rlineto
          214 132 rmoveto
          53 26 -44 -86 -90 -33 -47 -63 -22 -32 2 3 -25 hvcurveto
          -6 147 rlineto
          87 vlineto
          7 14 42 21 46 hhcurveto
          endchar
        </CharString>
        <CharString name="backslash">
          63 callsubr
          293 -117 rmoveto
          -217 875 -90 -16 217 -875 rlineto
          endchar
        </CharString>
        <CharString name="bar">
          48 callsubr
          -897 vlineto
          91 8 rlineto
          897 vlineto
          endchar
        </CharString>
        <CharString name="braceleft">
          62 callsubr
          25 266 rmoveto
          49 -5 23 -20 -37 -50 -43 -95 -48 vvcurveto
          -105 64 -50 135 vhcurveto
          10 74 rlineto
          -84 -24 13 60 hvcurveto
          69 35 37 71 vvcurveto
          47 -24 48 -35 22 vhcurveto
          35 22 24 49 46 71 -35 37 69 vvcurveto
          60 22 13 76 vhcurveto
          10 74 rlineto
          -142 -67 -50 -105 hvcurveto
          -48 43 -95 -50 vvcurveto
          -34 -17 -17 -45 -11 vhcurveto
          endchar
        </CharString>
        <CharString name="braceright">
          62 callsubr
          253 328 rmoveto
          -49 5 -23 20 37 50 43 95 48 vvcurveto
          105 -64 50 -135 vhcurveto
          -10 -74 rlineto
          84 24 -13 -60 hvcurveto
          -69 -35 -37 -71 vvcurveto
          -48 24 -48 35 -21 vhcurveto
          -35 -23 -24 -49 -45 -71 35 -37 -69 vvcurveto
          -60 -22 -13 -76 vhcurveto
          -10 -74 rlineto
          142 67 50 105 hvcurveto
          48 -43 95 50 vvcurveto
          34 17 16 45 12 vhcurveto
          endchar
        </CharString>
        <CharString name="bracketleft">
          27 callsubr
          278 -132 rmoveto
          57 vlineto
          -113 14 rlineto
          719 vlineto
          112 14 rlineto
          57 vlineto
          -208 12 9 -517 -9 -368 rlineto
          endchar
        </CharString>
        <CharString name="bracketright">
          27 callsubr
          209 -144 rmoveto
          -9 368 9 517 -208 -12 rlineto
          -57 vlineto
          112 -14 rlineto
          -719 vlineto
          -113 -14 rlineto
          -57 vlineto
          endchar
        </CharString>
        <CharString name="brokenbar">
          48 callsubr
          -333 vlineto
          91 8 rlineto
          333 vlineto
          -91 -574 rmoveto
          -331 vlineto
          91 8 rlineto
          331 vlineto
          endchar
        </CharString>
        <CharString name="bullet">
          -157 146 231 hstem
          164 377 rmoveto
          -72 -52 -57 -71 -52 34 -51 62 67 54 55 77 64 -36 35 -57 hvcurveto
          endchar
        </CharString>
        <CharString name="c">
          -70 -11 124 272 130 hstem
          138 267 rmoveto
          74 34 44 57 45 36 -28 0 vhcurveto
          70 123 rlineto
          0 -52 35 -65 -16 callsubr
          69 -90 100 120 62 133 0 vhcurveto
          52 callsubr
          vhcurveto
          endchar
        </CharString>
        <CharString name="ccedilla">
          -70 71 callsubr
          605 130 hstem
          164 -12 callsubr
          6 33 rlineto
          96 23 50 106 0 vvcurveto
          52 callsubr
          74 34 44 57 45 36 -28 0 vhcurveto
          70 123 rlineto
          0 -52 35 -65 -3 callsubr
          -118 57 -85 85 -15 vhcurveto
          -15 -76 -9 callsubr
        </CharString>
        <CharString name="cedilla">
          71 callsubr
          240 -20 hstem
          76 -12 callsubr
          11 60 rlineto
          -62 hlineto
          -21 -105 -9 callsubr
        </CharString>
        <CharString name="cent">
          -86 -105 -21 770 -20 hstem
          184 -126 rmoveto
          21 143 rlineto
          102 12 54 113 0 vvcurveto
          -47 49 rlineto
          0 -37 -58 -52 vhcurveto
          -3 hlineto
          36 252 rlineto
          23 -8 16 -12 0 vvcurveto
          67 117 rlineto
          0 -37 25 -50 6 vhcurveto
          19 129 -47 2 -19 -131 rlineto
          -110 -16 -92 -128 -144 vvcurveto
          -111 51 -79 79 -16 vhcurveto
          -21 -142 rlineto
          -3 403 rmoveto
          66 29 41 49 4 vhcurveto
          -35 -243 rlineto
          -28 22 -15 45 65 vvcurveto
          endchar
        </CharString>
        <CharString name="circumflex">
          587 -21 147 -20 hstem
          121 42 callsubr
          endchar
        </CharString>
        <CharString name="colon">
          -250 -6 154 109 56 callsubr
          148 rmoveto
          -75 callsubr
          263 36 callsubr
        </CharString>
        <CharString name="comma">
          -14 callsubr
        </CharString>
        <CharString name="copyright">
          306 -11 60 98 72 258 72 91 60 hstem
          226 77 vstem
          380 700 rmoveto
          -199 -161 -159 -196 -196 161 -160 199 199 161 160 196 196 -161 159 -199 hvcurveto
          294 -355 rmoveto
          -164 -132 -132 -162 -163 -131 132 164 163 131 132 163 162 132 -132 -163 vhcurveto
          -203 -66 rmoveto
          -36 -13 -32 -24 -35 hhcurveto
          -55 -33 53 88 71 33 46 51 43 37 -31 0 hvcurveto
          37 79 rlineto
          0 -34 24 -66 -100 -78 -96 -125 -102 65 -79 84 64 53 39 66 26 vhcurveto
          endchar
        </CharString>
        <CharString name="currency">
          13 53 -21 68 78 162 78 71 -20 hstem
          75 259 rmoveto
          -26 6 -25 12 -22 vhcurveto
          -77 -68 60 -86 80 89 rlineto
          -13 23 26 -8 28 hhcurveto
          27 26 7 13 22 hvcurveto
          70 -76 84 60 -88 82 rlineto
          12 21 7 25 27 vvcurveto
          28 -8 26 -13 22 vhcurveto
          76 70 -61 84 -80 -89 rlineto
          11 -22 -25 7 -27 hhcurveto
          -26 -26 -7 -11 -21 hvcurveto
          -70 76 -81 -58 86 -84 rlineto
          -13 -22 -7 -25 -28 vvcurveto
          78 hmoveto
          44 36 37 44 44 38 -37 -44 -44 -38 -37 -44 -44 -36 37 44 vhcurveto
          endchar
        </CharString>
        <CharString name="d">
          47 0 123 -113 -21 398 117 270 -20 hstemhm
          hintmask 10110000
          25 207 rmoveto
          -122 68 -85 94 61 68 91 7 6 vhcurveto
          hintmask 01110000
          3 -34 10 -33 20 -42 108 45 rcurveline
          -23 60 -7 38 40 vvcurveto
          88 vlineto
          13 514 -137 -25 12 -234 rlineto
          -19 vlineto
          -56 8 67 callsubr
          hvcurveto
          hintmask 10110000
          202 -84 rmoveto
          -57 -33 48 92 81 36 43 59 24 40 -7 -5 25 hvcurveto
          -216 64 callsubr
        </CharString>
        <CharString name="degree">
          -164 452 58 131 59 hstem
          145 700 rmoveto
          -68 -57 -56 -69 -67 57 -56 68 69 57 56 67 69 -57 56 -69 hvcurveto
          66 -125 rmoveto
          -35 -31 -30 -35 -34 -31 30 35 37 31 29 34 35 31 -29 -37 vhcurveto
          endchar
        </CharString>
        <CharString name="dieresis">
          592 136 hstem
          49 728 -102 callsubr
        </CharString>
        <CharString name="divide">
          -30 17 154 44 91 43 154 hstem
          17 215 -15 callsubr
          197 197 rmoveto
          -75 callsubr
          -332 36 callsubr
        </CharString>
        <CharString name="dollar">
          -83 -112 -21 122 92 341 93 115 -20 hstem
          7 64 rmoveto
          0 37 -48 65 -19 vhcurveto
          -29 -123 47 -7 29 122 rlineto
          9 hlineto
          99 86 81 93 78 -62 32 -59 24 hvcurveto
          25 107 rlineto
          27 -12 19 -14 0 vvcurveto
          51 108 rlineto
          0 -28 15 -44 8 vhcurveto
          27 115 -47 6 -28 -115 rlineto
          -11 hlineto
          -101 -86 -75 -89 -82 66 -31 61 -25 hvcurveto
          -28 -119 rlineto
          -40 19 -28 31 0 vvcurveto
          57 232 rmoveto
          27 25 19 34 10 9 -1 -2 10 vhcurveto
          -25 -104 rlineto
          -36 15 -27 16 30 vvcurveto
          141 -239 rmoveto
          -33 -28 -23 -44 vhcurveto
          -12 hlineto
          27 114 rlineto
          32 -15 25 -16 -27 vvcurveto
          endchar
        </CharString>
        <CharString name="dotlessi">
          21 -21 509 -20 -83 callsubr
          endchar
        </CharString>
        <CharString name="e">
          29 callsubr
          -57 callsubr
          endchar
        </CharString>
        <CharString name="eacute">
          -47 callsubr
          -25 487 -100 callsubr
          -130 -211 -13 callsubr
        </CharString>
        <CharString name="ecircumflex">
          29 callsubr
          198 -20 -95 callsubr
          -136 328 -91 callsubr
          136 -239 -13 callsubr
        </CharString>
        <CharString name="edieresis">
          29 callsubr
          77 136 -57 callsubr
          98 316 -77 callsubr
        </CharString>
        <CharString name="egrave">
          -47 callsubr
          -254 385 -86 callsubr
          99 -313 -13 callsubr
        </CharString>
        <CharString name="eight">
          76 -11 106 451 104 hstem
          40 155 rmoveto
          -91 97 -75 119 133 110 93 112 82 -60 44 -69 32 vhcurveto
          36 29 58 57 69 vvcurveto
          81 -81 62 -105 -121 -94 -85 -109 -72 42 -44 54 -32 vhcurveto
          -41 -21 -78 -51 -81 vvcurveto
          349 9 rmoveto
          -40 -47 -29 -64 -76 -51 39 59 38 38 31 27 18 vhcurveto
          85 -37 88 -23 -56 vvcurveto
          -216 318 rmoveto
          37 36 27 51 57 39 -30 -43 -33 -26 -37 -20 -25 vhcurveto
          -72 29 -65 25 50 vvcurveto
          endchar
        </CharString>
        <CharString name="emdash">
          96 66 callsubr
          559 41 callsubr
          -559 hlineto
          endchar
        </CharString>
        <CharString name="endash">
          -30 66 callsubr
          433 41 callsubr
          -433 hlineto
          endchar
        </CharString>
        <CharString name="equal">
          1 callsubr
        </CharString>
        <CharString name="eth">
          59 -11 105 277 96 313 -20 hstem
          67 512 rmoveto
          143 75 46 -47 35 -47 25 -48 rlinecurve
          13 -22 -27 9 -31 hhcurveto
          -122 -86 -102 -154 -122 95 -100 116 141 105 117 155 118 -51 115 -122 146 hvcurveto
          116 60 -11 46 -135 -71 -30 33 -32 35 -37 37 rlinecurve
          -128 -59 46 -35 40 -34 36 -33 rlinecurve
          -119 -62 rlineto
          311 -335 rmoveto
          -83 -40 -45 -70 -66 -44 55 83 92 34 47 74 39 35 -13 -11 23 vhcurveto
          10 -40 5 -42 -43 vvcurveto
          endchar
        </CharString>
        <CharString name="exclam">
          -208 -6 154 552 -20 hstem
          123 33 callsubr
          104 552 rmoveto
          -151 -25 rlineto
          -432 vlineto
          95 14 rlineto
          endchar
        </CharString>
        <CharString name="exclamdown">
          -208 65 callsubr
          124 32 callsubr
          -104 -552 rmoveto
          151 25 rlineto
          432 vlineto
          -95 -14 rlineto
          endchar
        </CharString>
        <CharString name="f">
          -152 59 callsubr
          356 765 rmoveto
          0 -45 9 -42 -106 -83 -95 -119 vhcurveto
          -7 callsubr
          17 21 42 28 37 -9 0 vhcurveto
          endchar
        </CharString>
        <CharString name="fi">
          92 21 -21 403 82 93 164 -82 114 hstemhm
          hintmask 11010000
          495 509 rmoveto
          -129 -24 rlineto
          -166 hlineto
          1 94 rlineto
          60 17 21 42 28 37 -9 0 vhcurveto
          31 114 rlineto
          0 -45 9 -42 -106 -83 -95 -119 vhcurveto
          1 -75 rlineto
          -53 hlineto
          -11 -82 rlineto
          66 hlineto
          4 -160 -35 callsubr
          135 -37 callsubr
          1 143 rlineto
          164 hlineto
          8 -160 -80 callsubr
          hintmask 11100000
          -11 callsubr
          endchar
        </CharString>
        <CharString name="five">
          32 -11 103 552 -20 hstem
          73 313 rmoveto
          133 -22 rlineto
          80 -13 42 -38 -60 vvcurveto
          -50 -48 -38 -63 -77 -81 64 0 vhcurveto
          -42 -117 rlineto
          0 71 -50 113 142 115 101 126 -1 vhcurveto
          -1 86 -64 70 -114 20 -109 19 rcurveline
          117 vlineto
          257 -23 22 138 -203 -11 -172 12 rlineto
          endchar
        </CharString>
        <CharString name="fl">
          109 59 callsubr
          502 774 rmoveto
          -92 -17 rlineto
          7 -36 -59 10 -42 hhcurveto
          -112 -81 -95 -119 hvcurveto
          -7 callsubr
          14 21 49 26 44 -8 -6 33 vhcurveto
          10 -403 -35 callsubr
          135 -26 callsubr
          endchar
        </CharString>
        <CharString name="foundryicon">
          328 -38 152 52 157 42 180 -87 87 hstemhm
          hintmask 11100000
          328 365 rmoveto
          45 33 -31 -42 hvcurveto
          -178 -74 136 vlineto
          38 -14 18 -29 -18 -6 -3 -9 vhcurveto
          -180 -74 vlineto
          hintmask 11010000
          344 74 -116 vlineto
          -6 2 -3 4 3 3 2 2 3 vhcurveto
          hintmask 11100000
          155 4 rmoveto
          89 56 rlineto
          21 -28 hlineto
          -6 4 -4 6 vhcurveto
          58 -36 -58 hlineto
          -7 -3 -4 -6 hvcurveto
          -90 vlineto
          -40 12 -17 29 8 9 1 3 9 vhcurveto
          -25 vlineto
          -63 -37 rlineto
          -45 -33 31 42 hvcurveto
          132 vlineto
          7 -3 3 -7 vhcurveto
          -26 hlineto
          -255 -361 rmoveto
          423 hlineto
          52 28 28 52 hvcurveto
          423 vlineto
          52 -28 28 -52 vhcurveto
          -423 hlineto
          -52 -28 -28 -52 hvcurveto
          -423 vlineto
          -52 28 -28 52 vhcurveto
          endchar
        </CharString>
        <CharString name="four">
          81 21 -21 162 95 386 -20 hstem
          10 248 rmoveto
          -8 -86 279 1 -10 -163 70 callsubr
          -6 161 80 -2 10 101 -96 -4 14 387 -165 -20 rlineto
          30 -109 rmoveto
          5 -256 -164 -1 rlineto
          endchar
        </CharString>
        <CharString name="g">
          53 -220 89 283 85 179 79 -79 99 hstemhm
          hintmask 11100000
          23 -99 rmoveto
          -74 83 -47 121 154 110 71 98 58 -39 32 -142 57 vhcurveto
          -29 10 -11 9 14 39 168 29 162 vvcurveto
          21 -2 14 -8 23 vhcurveto
          75 -9 10 87 rlineto
          -77 hlineto
          hintmask 11010000
          -86 -23 20 -58 hhcurveto
          -129 -110 -100 -116 -89 61 -58 96 hvcurveto
          -8 vlineto
          0 -39 -24 -29 vvcurveto
          -20 14 -19 25 -13 vhcurveto
          -111 -34 -53 -45 -59 vvcurveto
          302 420 rmoveto
          -55 -29 -29 -56 -63 -34 31 58 62 29 28 62 63 28 -30 -65 vhcurveto
          36 -387 rmoveto
          -39 -45 -26 -67 -64 -39 22 36 31 31 19 97 27 vhcurveto
          66 -28 21 -18 -24 vvcurveto
          endchar
        </CharString>
        <CharString name="germandbls">
          152 -11 104 567 114 hstem
          17 402 rmoveto
          66 hlineto
          4 -159 -35 callsubr
          135 -37 callsubr
          2 319 rlineto
          59 26 22 67 61 48 -28 -44 vhcurveto
          -70 -116 -36 -110 -161 217 -6 -66 57 callsubr
          -79 -92 rlineto
          61 callsubr
          151 -217 4 76 70 116 36 110 vvcurveto
          101 -79 61 -114 -131 -102 -94 -120 vhcurveto
          1 -76 rlineto
          -53 hlineto
          endchar
        </CharString>
        <CharString name="grave">
          596 -21 150 -20 hstem
          39 623 -81 callsubr
        </CharString>
        <CharString name="greater">
          -60 57 -21 439 -20 hstem
          374 259 rmoveto
          -250 216 -64 -71 172 -149 -164 -152 59 -67 rlineto
          endchar
        </CharString>
        <CharString name="guillemotleft">
          -18 16 callsubr
          85 136 4 callsubr
          endchar
        </CharString>
        <CharString name="guillemotright">
          -18 15 callsubr
          295 -136 3 callsubr
          endchar
        </CharString>
        <CharString name="guilsinglleft">
          -208 16 callsubr
          endchar
        </CharString>
        <CharString name="guilsinglright">
          -208 15 callsubr
          endchar
        </CharString>
        <CharString name="h">
          70 30 callsubr
          270 -20 hstem
          338 -5 rmoveto
          -44 callsubr
          -83 -70 -83 -23 -18 vhcurveto
          117 vlineto
          13 259 -19 callsubr
          73 vlineto
          -5 callsubr
          endchar
        </CharString>
        <CharString name="hbar">
          70 30 callsubr
          70 47 153 -20 hstem
          195 774 rmoveto
          -137 -25 3 -128 rlineto
          -64 69 callsubr
          70 hlineto
          8 -331 -35 callsubr
          135 -26 callsubr
          73 vlineto
          -5 callsubr
          -12 -258 -44 callsubr
          -83 -70 -83 -23 -18 vhcurveto
          117 vlineto
          3 59 50 callsubr
          4 47 rlineto
          -118 hlineto
          endchar
        </CharString>
        <CharString name="hyphen">
          -185 215 -21 133 -20 hstem
          21 194 rmoveto
          236 42 -8 91 -236 -42 rlineto
          endchar
        </CharString>
        <CharString name="i">
          21 -21 578 -21 callsubr
          endchar
        </CharString>
        <CharString name="iacute">
          21 -21 725 -20 -83 callsubr
          54 465 -98 callsubr
        </CharString>
        <CharString name="icircumflex">
          21 -21 713 -20 hstem
          123 42 callsubr
          213 -142 -78 callsubr
          endchar
        </CharString>
        <CharString name="idieresis">
          21 -21 592 136 -83 callsubr
          -130 468 -102 callsubr
        </CharString>
        <CharString name="igrave">
          21 -21 725 -20 -83 callsubr
          -175 363 -81 callsubr
        </CharString>
        <CharString name="ij">
          36 -220 114 684 -21 callsubr
          285 -482 -41 callsubr
        </CharString>
        <CharString name="itilde">
          21 -21 703 -20 -83 callsubr
          81 443 -92 callsubr
        </CharString>
        <CharString name="j">
          -208 -220 114 684 164 hstem
          181 260 -41 callsubr
        </CharString>
        <CharString name="jcircumflex">
          -208 -220 114 819 -20 hstem
          181 260 -56 callsubr
          -70 532 -91 callsubr
          endchar
        </CharString>
        <CharString name="k">
          27 11 -21 784 -20 hstem
          370 -10 rmoveto
          23 callsubr
          -200 -219 13 483 -19 callsubr
          7 vlineto
          endchar
        </CharString>
        <CharString name="kcedilla">
          27 71 callsubr
          994 -20 hstem
          89 -12 callsubr
          11 59 32 6 -11 235 rlineto
          7 vlineto
          188 -277 23 callsubr
          -200 -219 13 483 31 callsubr
          -35 callsubr
          38 7 -18 -92 -9 callsubr
        </CharString>
        <CharString name="kgreenlandic">
          27 11 -21 520 -20 -83 callsubr
          10 vlineto
          190 -280 23 callsubr
          -201 -220 rlineto
          endchar
        </CharString>
        <CharString name="l">
          -202 21 -21 774 25 callsubr
          endchar
        </CharString>
        <CharString name="ldot">
          -78 21 -21 222 154 398 25 callsubr
          123 116 rmoveto
          38 callsubr
        </CharString>
        <CharString name="less">
          -60 57 -21 439 -20 hstem
          21 252 rmoveto
          250 -216 64 71 -172 149 164 152 -59 67 rlineto
          endchar
        </CharString>
        <CharString name="logicalnot">
          -30 101 -21 165 91 hstem
          245 vmoveto
          271 -165 hlineto
          100 9 rlineto
          247 -363 vlineto
          endchar
        </CharString>
        <CharString name="lslash">
          -182 21 -21 774 -20 hstem
          205 774 rmoveto
          -137 -25 8 -346 -95 -53 18 -44 78 43 3 -106 -35 callsubr
          135 -37 callsubr
          4 154 102 57 -20 44 -81 -45 rlineto
          endchar
        </CharString>
        <CharString name="m">
          348 30 callsubr
          54 callsubr
          336 -5 rmoveto
          47 callsubr
          240 4 75 rlineto
          11 18 43 22 42 21 callsubr
          -12 -258 -44 callsubr
          -78 -67 -73 -28 -23 vhcurveto
          63 -10 -41 38 -61 hhcurveto
          -85 -71 -86 -22 -17 hvcurveto
          -23 callsubr
        </CharString>
        <CharString name="macron">
          603 85 hstem
          603 vmoveto
          236 hlineto
          8 85 rlineto
          -236 hlineto
          endchar
        </CharString>
        <CharString name="mu">
          66 55 callsubr
          122 387 -20 hstem
          455 -74 callsubr
          -42 -24 13 70 -17 callsubr
          -8 -457 122 24 -10 189 rlineto
          73 78 83 18 16 hvcurveto
          -51 callsubr
          endchar
        </CharString>
        <CharString name="multiply">
          -30 104 -21 355 -20 hstem
          107 90 rmoveto
          102 102 110 -109 64 77 -103 103 98 98 -59 70 -104 -104 -110 111 -64 -77 104 -104 -97 -97 rlineto
          endchar
        </CharString>
        <CharString name="n">
          68 30 callsubr
          54 callsubr
          -22 callsubr
          -23 callsubr
        </CharString>
        <CharString name="nacute">
          68 30 callsubr
          221 -50 callsubr
          39 472 -98 callsubr
        </CharString>
        <CharString name="nbspace">
          -301 endchar
        </CharString>
        <CharString name="nine">
          44 10 -21 245 103 210 103 hstem
          81 48 rmoveto
          139 -59 rlineto
          165 158 82 127 148 vvcurveto
          134 -86 94 -122 -135 -104 -98 -127 -111 72 -80 101 55 44 23 25 31 vhcurveto
          -37 -78 -77 -73 -128 -83 rrcurveto
          152 289 rmoveto
          -54 -38 48 62 58 40 42 57 67 45 -56 -85 -12 -1 -11 -1 -11 hvcurveto
          -12 -17 -42 -23 -56 hhcurveto
          endchar
        </CharString>
        <CharString name="ntilde">
          68 30 callsubr
          199 -50 callsubr
          66 450 -92 callsubr
        </CharString>
        <CharString name="numbersign">
          -30 64 -21 116 68 74 67 111 -20 hstem
          28 301 rmoveto
          79 hlineto
          -12 -74 rlineto
          -89 hlineto
          -6 -68 rlineto
          84 58 callsubr
          76 58 callsubr
          83 hlineto
          6 68 rlineto
          -78 hlineto
          11 74 rlineto
          89 hlineto
          6 67 rlineto
          -84 hlineto
          18 111 -74 -7 -17 -104 rlineto
          -77 hlineto
          18 111 -75 -7 -17 -104 rlineto
          -83 hlineto
          146 -67 rmoveto
          77 hlineto
          -12 -74 rlineto
          -76 hlineto
          endchar
        </CharString>
        <CharString name="o">
          27 9 callsubr
          -97 callsubr
          endchar
        </CharString>
        <CharString name="oacute">
          -49 callsubr
          13 481 -98 callsubr
        </CharString>
        <CharString name="ocircumflex">
          27 9 callsubr
          198 -20 hstem
          244 42 callsubr
          165 -136 -99 callsubr
          endchar
        </CharString>
        <CharString name="odieresis">
          27 9 callsubr
          77 136 -97 callsubr
          -171 484 -102 callsubr
        </CharString>
        <CharString name="oe">
          322 9 callsubr
          -103 103 hstemhm
          hintmask 11000000
          733 -31 callsubr
          -67 -62 -41 -63 -43 vhcurveto
          65 -29 -56 39 -72 hhcurveto
          -53 callsubr
          68 59 37 61 40 hvcurveto
          -61 31 54 -37 68 hhcurveto
          22 callsubr
          hvcurveto
          0 callsubr
          40 74 -11 vhcurveto
          250 22 rlineto
          -371 6 rmoveto
          -91 -33 -51 -60 -68 -41 56 95 89 36 47 67 67 32 -46 -99 vhcurveto
          hintmask 10100000
          227 168 rmoveto
          42 22 -23 -44 -15 -3 -23 0 hvcurveto
          -169 -22 rlineto
          74 6 44 53 58 hhcurveto
          endchar
        </CharString>
        <CharString name="ograve">
          -49 callsubr
          -216 379 -81 callsubr
        </CharString>
        <CharString name="one">
          -66 21 -21 650 -20 hstem
          285 650 rmoveto
          -279 -94 rlineto
          -65 vlineto
          140 1 8 -249 26 callsubr
        </CharString>
        <CharString name="onehalf">
          412 -98 -21 119 98 660 -20 hstem
          223 703 -20 callsubr
          427 -336 -33 callsubr
          155 -6 14 108 rlineto
          -620 -223 5 callsubr
          endchar
        </CharString>
        <CharString name="onequarter">
          400 68 callsubr
          568 -20 hstemhm
          hintmask 10110000
          223 703 -20 callsubr
          251 -251 rmoveto
          -7 -70 197 1 rlineto
          hintmask 11010000
          -7 -109 50 callsubr
          hintmask 10110000
          43 callsubr
          17 -111 rmoveto
          3 -133 -89 -1 rlineto
          -341 -309 5 callsubr
          endchar
        </CharString>
        <CharString name="onesuperior">
          -160 342 -21 457 -20 hstem
          220 778 -20 callsubr
          endchar
        </CharString>
        <CharString name="ordfeminine">
          -106 316 76 -58 -21 156 57 65 87 hstemhm
          hintmask 10110000
          16 412 rmoveto
          -57 41 -39 61 51 33 31 24 18 vhcurveto
          hintmask 01110000
          10 -27 17 -31 0 vvcurveto
          84 33 rlineto
          -22 40 -5 22 27 vvcurveto
          135 vlineto
          73 -40 35 -79 -69 -88 -54 0 vhcurveto
          23 -61 rlineto
          0 57 28 38 53 14 -13 -43 vhcurveto
          -9 -47 vlineto
          -84 -66 -50 -64 hvcurveto
          hintmask 10110000
          133 -20 rmoveto
          -23 -17 18 24 25 15 10 29 20 23 -4 -3 17 hvcurveto
          -42 vlineto
          -12 -16 -25 -16 -23 hhcurveto
          endchar
        </CharString>
        <CharString name="ordmasculine">
          -94 308 84 193 93 hstem
          19 89 143 89 vstem
          198 678 rmoveto
          -100 -79 -95 -120 -89 61 -66 84 101 75 92 124 94 -55 60 -87 hvcurveto
          53 -190 rmoveto
          -62 -24 -34 -41 -49 -29 39 63 59 24 32 49 48 22 -32 -65 vhcurveto
          endchar
        </CharString>
        <CharString name="oslash">
          27 -78 -21 88 113 287 126 96 -20 hstem
          265 515 rmoveto
          -132 -105 -136 -170 -72 26 -60 42 -40 hvcurveto
          -65 -117 43 -19 60 109 rlineto
          -13 26 29 -8 31 hhcurveto
          134 100 131 176 75 -24 60 -42 38 hvcurveto
          69 124 -44 18 -64 -115 rlineto
          12 -24 -29 7 -31 hhcurveto
          -4 callsubr
          -21 -19 5 10 -15 vhcurveto
          127 231 rlineto
          14 -24 7 -35 -45 vvcurveto
          -202 9 rmoveto
          88 35 48 68 16 15 -3 -5 12 vhcurveto
          -125 -226 rlineto
          -14 25 -7 33 40 vvcurveto
          endchar
        </CharString>
        <CharString name="otilde">
          27 9 callsubr
          188 -20 -97 callsubr
          40 459 -92 callsubr
        </CharString>
        <CharString name="p">
          46 53 callsubr
          4 -20 hstemhm
          hintmask 11100000
          71 11 callsubr
          -73 -70 -98 -3 -1 hvcurveto
          hintmask 11010000
          -4 52 -6 53 0 vvcurveto
          -121 -26 rlineto
          0 17 -89 5 -151 vhcurveto
          hintmask 11100000
          214 132 17 callsubr
          endchar
        </CharString>
        <CharString name="paragraph">
          59 -10 118 587 -20 hstem
          242 690 rmoveto
          -25 hlineto
          -128 -82 -79 -121 -132 110 -102 138 hvcurveto
          63 -47 -52 callsubr
        </CharString>
        <CharString name="parenleft">
          27 callsubr
          67 288 rmoveto
          -269 45 -106 141 -57 vhcurveto
          30 48 rlineto
          -94 59 -27 90 255 vvcurveto
          234 28 91 93 60 vhcurveto
          -30 48 rlineto
          -141 -69 -45 -111 -273 vvcurveto
          endchar
        </CharString>
        <CharString name="parenright">
          27 callsubr
          211 309 rmoveto
          269 -45 106 -141 57 vhcurveto
          -30 -48 rlineto
          94 -59 27 -90 -255 vvcurveto
          -234 -28 -91 -93 -60 vhcurveto
          30 -48 rlineto
          141 69 45 111 273 vvcurveto
          endchar
        </CharString>
        <CharString name="percent">
          520 -98 -21 116 76 170 76 43 87 159 87 63 -20 hstem
          231 695 -24 callsubr
          495 -7 -24 callsubr
          -536 -329 5 callsubr
          endchar
        </CharString>
        <CharString name="period">
          -250 -6 56 callsubr
          148 rmoveto
          38 callsubr
        </CharString>
        <CharString name="periodcentered">
          -250 182 56 callsubr
          336 rmoveto
          38 callsubr
        </CharString>
        <CharString name="plus">
          -30 81 -21 155 -8 callsubr
          endchar
        </CharString>
        <CharString name="plusminus">
          -30 -91 91 215 -8 callsubr
          -8 -397 -15 callsubr
          endchar
        </CharString>
        <CharString name="q">
          48 55 callsubr
          123 264 117 11 -20 hstemhm
          hintmask 11010000
          445 515 rmoveto
          -85 -24 rlineto
          hintmask 11100000
          -95 13 67 callsubr
          -131 76 -76 86 59 65 83 13 10 hvcurveto
          -107 vlineto
          -13 -202 137 25 -12 448 rlineto
          hintmask 11010000
          -206 -137 rmoveto
          -58 -32 49 91 hvcurveto
          hintmask 11100000
          87 39 37 56 22 35 -6 -4 25 vhcurveto
          7 -134 rlineto
          -84 64 callsubr
        </CharString>
        <CharString name="question">
          -101 -6 154 552 -20 hstem
          161 33 callsubr
          4 99 rmoveto
          126 95 63 86 76 vvcurveto
          110 -107 69 -197 17 vhcurveto
          -50 -112 rlineto
          146 -3 74 -37 -70 vvcurveto
          -53 -42 -51 -90 -58 vhcurveto
          endchar
        </CharString>
        <CharString name="questiondown">
          -101 65 callsubr
          193 32 callsubr
          -4 -99 rmoveto
          -126 -95 -63 -86 -76 vvcurveto
          -110 107 -69 197 -17 vhcurveto
          50 112 rlineto
          -146 3 -74 37 70 vvcurveto
          53 42 51 90 58 vhcurveto
          endchar
        </CharString>
        <CharString name="quotedbl">
          -107 18 callsubr
          46 -10 12 callsubr
          endchar
        </CharString>
        <CharString name="quotedblbase">
          -80 -92 37 callsubr
          33 115 -96 callsubr
          72 -39 -87 callsubr
        </CharString>
        <CharString name="quotedblleft">
          -92 -10 callsubr
          268 39 -34 callsubr
          endchar
        </CharString>
        <CharString name="quotedblright">
          -92 398 37 callsubr
          43 605 -96 callsubr
          72 -39 -87 callsubr
        </CharString>
        <CharString name="quoteleft">
          -262 -10 callsubr
          endchar
        </CharString>
        <CharString name="quoteright">
          -262 398 37 callsubr
          43 605 -87 callsubr
        </CharString>
        <CharString name="quotesinglbase">
          -14 callsubr
        </CharString>
        <CharString name="quotesingle">
          -262 18 callsubr
          endchar
        </CharString>
        <CharString name="r">
          -99 21 -21 348 -36 callsubr
          endchar
        </CharString>
        <CharString name="rcaron">
          -99 21 -21 348 156 209 -20 hstem
          -58 callsubr
          -3 69 -9 77 0 vvcurveto
          -51 57 rmoveto
          117 85 -12 62 -105 -47 -103 47 -12 -62 rlineto
          endchar
        </CharString>
        <CharString name="rcommaaccent">
          -99 -286 -21 655 -36 callsubr
          -100 -588 -87 callsubr
        </CharString>
        <CharString name="registered">
          -29 315 49 285 48 hstem
          212 697 rmoveto
          -105 -87 -86 -104 -105 87 -87 105 107 87 87 105 104 -87 86 -107 hvcurveto
          143 -190 rmoveto
          -80 -64 -63 -79 -78 -63 63 80 78 63 64 78 79 64 -64 -78 vhcurveto
          -99 -102 rmoveto
          45 23 -52 71 rlineto
          22 13 13 24 24 vvcurveto
          35 -28 25 -40 vhcurveto
          -69 hlineto
          3 -135 -3 -75 rlineto
          50 hlineto
          -4 77 rlineto
          16 hlineto
          -3 94 rmoveto
          21 8 -7 -18 -21 -8 -10 -17 hvcurveto
          -16 hlineto
          3 56 rlineto
          endchar
        </CharString>
        <CharString name="s">
          -61 -11 104 318 104 hstem
          7 73 rmoveto
          61 callsubr
          144 -220 4 59 vvcurveto
          24 18 15 29 56 59 -53 0 vhcurveto
          67 122 rlineto
          0 -55 35 -82 -103 -92 -78 -89 vhcurveto
          -144 220 -6 -59 57 callsubr
          endchar
        </CharString>
        <CharString name="section">
          -29 -138 104 580 104 hstem
          13 -54 rmoveto
          0 68 -84 104 100 78 77 90 45 -20 32 -29 25 vhcurveto
          40 32 46 50 70 150 -239 12 68 vvcurveto
          18 16 15 29 54 64 -53 0 vhcurveto
          57 122 rlineto
          0 -61 35 -74 -108 -78 -73 -88 -47 22 -32 30 -25 vhcurveto
          -42 -29 -48 -50 -70 -148 240 -11 -74 vvcurveto
          -20 -18 -17 -32 -66 -62 72 0 vhcurveto
          40 228 rmoveto
          34 32 34 15 14 vhcurveto
          62 -32 66 -21 -43 vvcurveto
          -34 -31 -34 -13 -14 vhcurveto
          -64 33 -67 20 43 vvcurveto
          endchar
        </CharString>
        <CharString name="semicolon">
          -250 -92 -21 370 56 callsubr
          411 rmoveto
          -75 callsubr
          -80 -296 -87 callsubr
        </CharString>
        <CharString name="seven">
          -11 10 -21 527 121 7 -20 hstemhm
          hintmask 11000000
          55 34 rmoveto
          142 -45 64 213 162 335 rlineto
          hintmask 10100000
          15 107 -200 -12 -211 11 -22 -138 301 23 rlineto
          endchar
        </CharString>
        <CharString name="six">
          44 -11 103 210 103 245 -20 hstem
          418 591 rmoveto
          -139 59 rlineto
          -165 -158 -82 -127 -148 vvcurveto
          -134 86 -94 122 135 104 98 127 111 -72 80 -101 -56 -43 -24 -24 -31 vhcurveto
          37 78 76 72 129 84 rrcurveto
          -152 -289 rmoveto
          54 38 -48 -62 -58 -40 -42 -57 -67 -45 56 85 11 1 12 1 11 hvcurveto
          11 16 42 24 57 hhcurveto
          endchar
        </CharString>
        <CharString name="slash">
          63 callsubr
          99 -133 rmoveto
          217 875 -90 16 -217 -875 rlineto
          endchar
        </CharString>
        <CharString name="space">
          -301 endchar
        </CharString>
        <CharString name="sterling">
          14 -23 109 -67 67 -67 91 169 82 175 114 hstemhm
          hintmask 01011000
          44 279 rmoveto
          66 hlineto
          7 -46 rlineto
          -101 -86 -48 0 vhcurveto
          -15 -95 rlineto
          0 83 30 45 vhcurveto
          hintmask 10011000
          73 34 -42 73 hhcurveto
          72 73 76 0 hvcurveto
          -33 75 rlineto
          0 -59 -42 -48 vhcurveto
          hintmask 00111000
          -43 -38 24 -68 -8 -7 -1 -8 hhcurveto
          30 25 42 48 68 vvcurveto
          -3 29 rlineto
          146 hlineto
          11 82 rlineto
          -164 hlineto
          -8 84 rlineto
          66 25 25 64 44 61 -15 0 vhcurveto
          31 114 rlineto
          0 -65 15 -62 -123 -96 -98 -126 vhcurveto
          9 -65 rlineto
          -44 hlineto
          endchar
        </CharString>
        <CharString name="t">
          -100 0 115 287 82 135 -20 hstem
          28 402 rmoveto
          69 hlineto
          1 -158 -6 -112 rlineto
          -79 47 -53 70 30 40 19 36 43 vhcurveto
          -6 71 rlineto
          -9 -33 -12 -2 -15 hhcurveto
          -37 -9 16 62 hvcurveto
          5 209 rlineto
          114 hlineto
          11 82 rlineto
          -121 hlineto
          13 135 -135 -26 rlineto
          -109 -58 vlineto
          endchar
        </CharString>
        <CharString name="thorn">
          44 53 callsubr
          269 -20 hstem
          69 11 callsubr
          -69 -64 -85 -13 -9 hvcurveto
          109 vlineto
          13 258 -137 -25 rlineto
          227 -374 17 callsubr
          -215 -132 rmoveto
          112 17 -111 -17 rlineto
          endchar
        </CharString>
        <CharString name="three">
          33 -11 103 189 97 171 101 hstem
          40 499 rmoveto
          0 83 50 72 54 39 -32 -45 -59 -43 -35 -74 vhcurveto
          -55 hlineto
          -18 -97 rlineto
          86 hlineto
          88 53 -40 -65 -49 -48 -35 -65 -83 -78 73 0 hvcurveto
          -42 -121 rlineto
          0 79 -55 115 142 104 87 120 79 -39 48 -93 35 vhcurveto
          64 25 36 52 67 vvcurveto
          86 -79 62 -108 -85 -84 -30 0 vhcurveto
          endchar
        </CharString>
        <CharString name="threequarters">
          429 68 callsubr
          49 87 108 83 97 85 59 -20 hstemhm
          hintmask 10111110
          493 178 rmoveto
          -7 -70 197 1 rlineto
          hintmask 11011110
          -7 -109 50 callsubr
          hintmask 10111110
          43 callsubr
          -613 243 -63 callsubr
          201 -798 5 callsubr
          506 411 rmoveto
          3 -133 -89 -1 rlineto
          endchar
        </CharString>
        <CharString name="threesuperior">
          -91 314 87 108 83 97 85 hstem
          48 753 -63 callsubr
          endchar
        </CharString>
        <CharString name="tilde">
          595 -21 129 -20 hstem
          260 703 -92 callsubr
        </CharString>
        <CharString name="two">
          54 0 118 -103 -21 529 127 hstemhm
          hintmask 10100000
          38 101 rmoveto
          -16 -105 236 7 rlineto
          hintmask 01100000
          208 -9 17 133 -312 -18 174 180 rlineto
          64 66 38 75 61 vvcurveto
          96 -74 63 -114 -94 -97 -54 0 vhcurveto
          -27 -143 rlineto
          0 107 70 95 44 24 -19 -37 -33 -24 -47 -39 -44 vhcurveto
          endchar
        </CharString>
        <CharString name="twosuperior">
          -76 320 99 -81 -21 354 103 hstemhm
          hintmask 10100000
          155 414 -33 callsubr
          rlineto
          hintmask 01100000
          155 -6 14 108 rlineto
          endchar
        </CharString>
        <CharString name="u">
          40 callsubr
          512 -20 -105 callsubr
          endchar
        </CharString>
        <CharString name="uacute">
          -62 callsubr
          -76 553 -98 callsubr
        </CharString>
        <CharString name="ucircumflex">
          40 callsubr
          716 -20 -105 callsubr
          -187 394 -91 callsubr
          endchar
        </CharString>
        <CharString name="udieresis">
          40 callsubr
          595 136 -105 callsubr
          -97 556 -77 callsubr
        </CharString>
        <CharString name="ugrave">
          -62 callsubr
          -305 451 -81 callsubr
        </CharString>
        <CharString name="underscore">
          -30 -220 89 hstem
          -8 -220 rmoveto
          433 hlineto
          8 89 rlineto
          -433 hlineto
          endchar
        </CharString>
        <CharString name="v">
          5 18 -21 512 -20 hstem
          228 125 rmoveto
          -37 163 -43 220 -136 -25 72 -243 59 -243 171 15 63 234 75 248 -124 15 -54 -247 -33 -137 rlineto
          endchar
        </CharString>
        <CharString name="w">
          276 18 -21 512 -20 hstem
          504 125 rmoveto
          -35 163 -42 220 -129 -25 21 -73 -86 -285 rlineto
          -13 hlineto
          -36 163 -41 220 -131 -25 69 -243 58 -243 159 15 64 234 3 10 5 -16 55 -243 164 15 61 234 73 248 -122 15 -52 -247 -32 -137 rlineto
          endchar
        </CharString>
        <CharString name="x">
          18 11 -21 520 -20 hstem
          353 -10 rmoveto
          111 76 -158 190 149 194 -97 60 -118 -171 -109 169 -111 -76 149 -184 -157 -203 99 -55 123 177 rlineto
          endchar
        </CharString>
        <CharString name="y">
          10 71 callsubr
          729 -20 -61 callsubr
          endchar
        </CharString>
        <CharString name="yacute">
          10 71 callsubr
          945 -20 -61 callsubr
          169 687 -98 callsubr
        </CharString>
        <CharString name="ydieresis">
          10 71 callsubr
          812 136 -61 callsubr
          -15 690 -102 callsubr
        </CharString>
        <CharString name="yen">
          114 0 198 -47 47 77 47 324 -20 hstemhm
          hintmask 10110000
          525 198 rmoveto
          -180 hlineto
          -1 37 20 40 rlineto
          157 hlineto
          4 47 rlineto
          -138 hlineto
          70 139 95 167 -122 18 -78 -165 -57 -108 rlineto
          -12 hlineto
          -61 121 -66 152 -141 -25 97 -175 61 -124 rlineto
          -126 69 callsubr
          155 hlineto
          28 -57 -1 -20 rlineto
          -177 hlineto
          hintmask 01110000
          -5 -47 rlineto
          180 hlineto
          hintmask 10110000
          -7 -151 70 callsubr
          -7 151 rlineto
          173 hlineto
          endchar
        </CharString>
        <CharString name="z">
          -38 0 113 -98 -21 398 113 7 -20 hstemhm
          hintmask 10100000
          41 99 rmoveto
          hintmask 01100000
          -17 -105 190 11 170 -11 22 126 -243 -14 212 302 rlineto
          hintmask 10010000
          17 104 -167 -12 -171 11 -23 -126 221 15 rlineto
          endchar
        </CharString>
        <CharString name="zero">
          116 -11 98 449 113 hstem
          313 649 rmoveto
          -165 -118 -150 -212 -177 93 -121 135 176 107 137 226 179 -90 118 -138 hvcurveto
          92 -349 rmoveto
          -153 -31 -60 -80 -90 -38 74 178 136 36 61 82 92 29 -56 -180 vhcurveto
          endchar
        </CharString>
</ttFont>
